<mxfile host="Electron" modified="2024-04-09T13:01:44.543Z" agent="Mozilla/5.0 (Macintosh; Intel Mac OS X 10_15_7) AppleWebKit/537.36 (KHTML, like Gecko) draw.io/21.6.5 Chrome/114.0.5735.243 Electron/25.3.1 Safari/537.36" etag="kX_z30jGs9r1UHOUeCbP" version="21.6.5" type="device" pages="3">
  <diagram name="Relational Schema" id="hG28JE-X-xJdluFglt5S">
    <mxGraphModel dx="4044" dy="1214" grid="1" gridSize="10" guides="1" tooltips="1" connect="1" arrows="1" fold="1" page="1" pageScale="1" pageWidth="850" pageHeight="1100" math="0" shadow="0">
      <root>
        <mxCell id="0" />
        <mxCell id="1" parent="0" />
        <mxCell id="KH4IyGDIZktf-V-J-w1Y-96" value="" style="shape=table;startSize=0;container=1;collapsible=0;childLayout=tableLayout;" parent="1" vertex="1">
          <mxGeometry x="20" y="40" width="980" height="40" as="geometry" />
        </mxCell>
        <mxCell id="KH4IyGDIZktf-V-J-w1Y-97" value="" style="shape=tableRow;horizontal=0;startSize=0;swimlaneHead=0;swimlaneBody=0;strokeColor=inherit;top=0;left=0;bottom=0;right=0;collapsible=0;dropTarget=0;fillColor=none;points=[[0,0.5],[1,0.5]];portConstraint=eastwest;" parent="KH4IyGDIZktf-V-J-w1Y-96" vertex="1">
          <mxGeometry width="980" height="40" as="geometry" />
        </mxCell>
        <mxCell id="KH4IyGDIZktf-V-J-w1Y-98" value="&lt;u&gt;id&lt;/u&gt;" style="shape=partialRectangle;html=1;whiteSpace=wrap;connectable=0;strokeColor=inherit;overflow=hidden;fillColor=none;top=0;left=0;bottom=0;right=0;pointerEvents=1;" parent="KH4IyGDIZktf-V-J-w1Y-97" vertex="1">
          <mxGeometry width="40" height="40" as="geometry">
            <mxRectangle width="40" height="40" as="alternateBounds" />
          </mxGeometry>
        </mxCell>
        <mxCell id="KH4IyGDIZktf-V-J-w1Y-99" value="username" style="shape=partialRectangle;html=1;whiteSpace=wrap;connectable=0;strokeColor=inherit;overflow=hidden;fillColor=none;top=0;left=0;bottom=0;right=0;pointerEvents=1;" parent="KH4IyGDIZktf-V-J-w1Y-97" vertex="1">
          <mxGeometry x="40" width="87" height="40" as="geometry">
            <mxRectangle width="87" height="40" as="alternateBounds" />
          </mxGeometry>
        </mxCell>
        <mxCell id="KH4IyGDIZktf-V-J-w1Y-100" value="password" style="shape=partialRectangle;html=1;whiteSpace=wrap;connectable=0;strokeColor=inherit;overflow=hidden;fillColor=none;top=0;left=0;bottom=0;right=0;pointerEvents=1;" parent="KH4IyGDIZktf-V-J-w1Y-97" vertex="1">
          <mxGeometry x="127" width="104" height="40" as="geometry">
            <mxRectangle width="104" height="40" as="alternateBounds" />
          </mxGeometry>
        </mxCell>
        <mxCell id="KH4IyGDIZktf-V-J-w1Y-101" value="name" style="shape=partialRectangle;html=1;whiteSpace=wrap;connectable=0;strokeColor=inherit;overflow=hidden;fillColor=none;top=0;left=0;bottom=0;right=0;pointerEvents=1;" parent="KH4IyGDIZktf-V-J-w1Y-97" vertex="1">
          <mxGeometry x="231" width="74" height="40" as="geometry">
            <mxRectangle width="74" height="40" as="alternateBounds" />
          </mxGeometry>
        </mxCell>
        <mxCell id="KH4IyGDIZktf-V-J-w1Y-102" value="&amp;nbsp;profile_info&lt;span style=&quot;white-space: pre;&quot;&gt;&#x9;&lt;/span&gt;" style="shape=partialRectangle;html=1;whiteSpace=wrap;connectable=0;strokeColor=inherit;overflow=hidden;fillColor=none;top=0;left=0;bottom=0;right=0;pointerEvents=1;" parent="KH4IyGDIZktf-V-J-w1Y-97" vertex="1">
          <mxGeometry x="305" width="92" height="40" as="geometry">
            <mxRectangle width="92" height="40" as="alternateBounds" />
          </mxGeometry>
        </mxCell>
        <mxCell id="KH4IyGDIZktf-V-J-w1Y-103" value="fitness_goals" style="shape=partialRectangle;html=1;whiteSpace=wrap;connectable=0;strokeColor=inherit;overflow=hidden;fillColor=none;top=0;left=0;bottom=0;right=0;pointerEvents=1;" parent="KH4IyGDIZktf-V-J-w1Y-97" vertex="1">
          <mxGeometry x="397" width="112" height="40" as="geometry">
            <mxRectangle width="112" height="40" as="alternateBounds" />
          </mxGeometry>
        </mxCell>
        <mxCell id="KH4IyGDIZktf-V-J-w1Y-104" value="health_metrics" style="shape=partialRectangle;html=1;whiteSpace=wrap;connectable=0;strokeColor=inherit;overflow=hidden;fillColor=none;top=0;left=0;bottom=0;right=0;pointerEvents=1;" parent="KH4IyGDIZktf-V-J-w1Y-97" vertex="1">
          <mxGeometry x="509" width="97" height="40" as="geometry">
            <mxRectangle width="97" height="40" as="alternateBounds" />
          </mxGeometry>
        </mxCell>
        <mxCell id="KH4IyGDIZktf-V-J-w1Y-105" value="height" style="shape=partialRectangle;html=1;whiteSpace=wrap;connectable=0;strokeColor=inherit;overflow=hidden;fillColor=none;top=0;left=0;bottom=0;right=0;pointerEvents=1;" parent="KH4IyGDIZktf-V-J-w1Y-97" vertex="1">
          <mxGeometry x="606" width="61" height="40" as="geometry">
            <mxRectangle width="61" height="40" as="alternateBounds" />
          </mxGeometry>
        </mxCell>
        <mxCell id="KH4IyGDIZktf-V-J-w1Y-106" value="weight" style="shape=partialRectangle;html=1;whiteSpace=wrap;connectable=0;strokeColor=inherit;overflow=hidden;fillColor=none;top=0;left=0;bottom=0;right=0;pointerEvents=1;" parent="KH4IyGDIZktf-V-J-w1Y-97" vertex="1">
          <mxGeometry x="667" width="46" height="40" as="geometry">
            <mxRectangle width="46" height="40" as="alternateBounds" />
          </mxGeometry>
        </mxCell>
        <mxCell id="KH4IyGDIZktf-V-J-w1Y-107" value="goal_weight" style="shape=partialRectangle;html=1;whiteSpace=wrap;connectable=0;strokeColor=inherit;overflow=hidden;fillColor=none;top=0;left=0;bottom=0;right=0;pointerEvents=1;" parent="KH4IyGDIZktf-V-J-w1Y-97" vertex="1">
          <mxGeometry x="713" width="79" height="40" as="geometry">
            <mxRectangle width="79" height="40" as="alternateBounds" />
          </mxGeometry>
        </mxCell>
        <mxCell id="KH4IyGDIZktf-V-J-w1Y-108" value="goal_workotus_per_week" style="shape=partialRectangle;html=1;whiteSpace=wrap;connectable=0;strokeColor=inherit;overflow=hidden;fillColor=none;top=0;left=0;bottom=0;right=0;pointerEvents=1;" parent="KH4IyGDIZktf-V-J-w1Y-97" vertex="1">
          <mxGeometry x="792" width="188" height="40" as="geometry">
            <mxRectangle width="188" height="40" as="alternateBounds" />
          </mxGeometry>
        </mxCell>
        <mxCell id="KH4IyGDIZktf-V-J-w1Y-110" value="Member" style="text;html=1;align=center;verticalAlign=middle;resizable=0;points=[];autosize=1;strokeColor=none;fillColor=none;" parent="1" vertex="1">
          <mxGeometry y="10" width="70" height="30" as="geometry" />
        </mxCell>
        <mxCell id="KH4IyGDIZktf-V-J-w1Y-189" style="edgeStyle=orthogonalEdgeStyle;rounded=0;orthogonalLoop=1;jettySize=auto;html=1;entryX=0.014;entryY=0.975;entryDx=0;entryDy=0;entryPerimeter=0;fontFamily=Helvetica;fontSize=12;fontColor=default;startSize=0;exitX=0.275;exitY=-0.025;exitDx=0;exitDy=0;exitPerimeter=0;" parent="1" source="KH4IyGDIZktf-V-J-w1Y-112" target="KH4IyGDIZktf-V-J-w1Y-97" edge="1">
          <mxGeometry relative="1" as="geometry" />
        </mxCell>
        <mxCell id="KH4IyGDIZktf-V-J-w1Y-111" value="" style="shape=table;startSize=0;container=1;collapsible=0;childLayout=tableLayout;" parent="1" vertex="1">
          <mxGeometry x="20" y="150" width="240" height="40" as="geometry" />
        </mxCell>
        <mxCell id="KH4IyGDIZktf-V-J-w1Y-112" value="" style="shape=tableRow;horizontal=0;startSize=0;swimlaneHead=0;swimlaneBody=0;strokeColor=inherit;top=0;left=0;bottom=0;right=0;collapsible=0;dropTarget=0;fillColor=none;points=[[0,0.5],[1,0.5]];portConstraint=eastwest;" parent="KH4IyGDIZktf-V-J-w1Y-111" vertex="1">
          <mxGeometry width="240" height="40" as="geometry" />
        </mxCell>
        <mxCell id="KH4IyGDIZktf-V-J-w1Y-113" value="&lt;u&gt;id&lt;/u&gt;" style="shape=partialRectangle;html=1;whiteSpace=wrap;connectable=0;strokeColor=inherit;overflow=hidden;fillColor=none;top=0;left=0;bottom=0;right=0;pointerEvents=1;" parent="KH4IyGDIZktf-V-J-w1Y-112" vertex="1">
          <mxGeometry width="40" height="40" as="geometry">
            <mxRectangle width="40" height="40" as="alternateBounds" />
          </mxGeometry>
        </mxCell>
        <mxCell id="KH4IyGDIZktf-V-J-w1Y-114" value="&lt;u&gt;member_id&lt;/u&gt;" style="shape=partialRectangle;html=1;whiteSpace=wrap;connectable=0;strokeColor=inherit;overflow=hidden;fillColor=none;top=0;left=0;bottom=0;right=0;pointerEvents=1;" parent="KH4IyGDIZktf-V-J-w1Y-112" vertex="1">
          <mxGeometry x="40" width="70" height="40" as="geometry">
            <mxRectangle width="70" height="40" as="alternateBounds" />
          </mxGeometry>
        </mxCell>
        <mxCell id="KH4IyGDIZktf-V-J-w1Y-115" value="type" style="shape=partialRectangle;html=1;whiteSpace=wrap;connectable=0;strokeColor=inherit;overflow=hidden;fillColor=none;top=0;left=0;bottom=0;right=0;pointerEvents=1;" parent="KH4IyGDIZktf-V-J-w1Y-112" vertex="1">
          <mxGeometry x="110" width="50" height="40" as="geometry">
            <mxRectangle width="50" height="40" as="alternateBounds" />
          </mxGeometry>
        </mxCell>
        <mxCell id="KH4IyGDIZktf-V-J-w1Y-116" value="date" style="shape=partialRectangle;html=1;whiteSpace=wrap;connectable=0;strokeColor=inherit;overflow=hidden;fillColor=none;top=0;left=0;bottom=0;right=0;pointerEvents=1;" parent="KH4IyGDIZktf-V-J-w1Y-112" vertex="1">
          <mxGeometry x="160" width="80" height="40" as="geometry">
            <mxRectangle width="80" height="40" as="alternateBounds" />
          </mxGeometry>
        </mxCell>
        <mxCell id="KH4IyGDIZktf-V-J-w1Y-117" value="Routine" style="text;html=1;align=center;verticalAlign=middle;resizable=0;points=[];autosize=1;strokeColor=none;fillColor=none;" parent="1" vertex="1">
          <mxGeometry y="120" width="60" height="30" as="geometry" />
        </mxCell>
        <mxCell id="KH4IyGDIZktf-V-J-w1Y-118" value="" style="shape=table;startSize=0;container=1;collapsible=0;childLayout=tableLayout;" parent="1" vertex="1">
          <mxGeometry x="20" y="250" width="240" height="40" as="geometry" />
        </mxCell>
        <mxCell id="KH4IyGDIZktf-V-J-w1Y-119" value="" style="shape=tableRow;horizontal=0;startSize=0;swimlaneHead=0;swimlaneBody=0;strokeColor=inherit;top=0;left=0;bottom=0;right=0;collapsible=0;dropTarget=0;fillColor=none;points=[[0,0.5],[1,0.5]];portConstraint=eastwest;" parent="KH4IyGDIZktf-V-J-w1Y-118" vertex="1">
          <mxGeometry width="240" height="40" as="geometry" />
        </mxCell>
        <mxCell id="KH4IyGDIZktf-V-J-w1Y-120" value="&lt;u&gt;id&lt;/u&gt;" style="shape=partialRectangle;html=1;whiteSpace=wrap;connectable=0;strokeColor=inherit;overflow=hidden;fillColor=none;top=0;left=0;bottom=0;right=0;pointerEvents=1;" parent="KH4IyGDIZktf-V-J-w1Y-119" vertex="1">
          <mxGeometry width="40" height="40" as="geometry">
            <mxRectangle width="40" height="40" as="alternateBounds" />
          </mxGeometry>
        </mxCell>
        <mxCell id="KH4IyGDIZktf-V-J-w1Y-121" value="username" style="shape=partialRectangle;html=1;whiteSpace=wrap;connectable=0;strokeColor=inherit;overflow=hidden;fillColor=none;top=0;left=0;bottom=0;right=0;pointerEvents=1;" parent="KH4IyGDIZktf-V-J-w1Y-119" vertex="1">
          <mxGeometry x="40" width="80" height="40" as="geometry">
            <mxRectangle width="80" height="40" as="alternateBounds" />
          </mxGeometry>
        </mxCell>
        <mxCell id="KH4IyGDIZktf-V-J-w1Y-122" value="password" style="shape=partialRectangle;html=1;whiteSpace=wrap;connectable=0;strokeColor=inherit;overflow=hidden;fillColor=none;top=0;left=0;bottom=0;right=0;pointerEvents=1;" parent="KH4IyGDIZktf-V-J-w1Y-119" vertex="1">
          <mxGeometry x="120" width="60" height="40" as="geometry">
            <mxRectangle width="60" height="40" as="alternateBounds" />
          </mxGeometry>
        </mxCell>
        <mxCell id="KH4IyGDIZktf-V-J-w1Y-123" value="name" style="shape=partialRectangle;html=1;whiteSpace=wrap;connectable=0;strokeColor=inherit;overflow=hidden;fillColor=none;top=0;left=0;bottom=0;right=0;pointerEvents=1;" parent="KH4IyGDIZktf-V-J-w1Y-119" vertex="1">
          <mxGeometry x="180" width="60" height="40" as="geometry">
            <mxRectangle width="60" height="40" as="alternateBounds" />
          </mxGeometry>
        </mxCell>
        <mxCell id="KH4IyGDIZktf-V-J-w1Y-124" value="Trainer" style="text;html=1;align=center;verticalAlign=middle;resizable=0;points=[];autosize=1;strokeColor=none;fillColor=none;" parent="1" vertex="1">
          <mxGeometry y="220" width="60" height="30" as="geometry" />
        </mxCell>
        <mxCell id="KH4IyGDIZktf-V-J-w1Y-190" style="edgeStyle=orthogonalEdgeStyle;rounded=0;orthogonalLoop=1;jettySize=auto;html=1;entryX=0.071;entryY=0.975;entryDx=0;entryDy=0;entryPerimeter=0;fontFamily=Helvetica;fontSize=12;fontColor=default;startSize=0;exitX=0.229;exitY=0;exitDx=0;exitDy=0;exitPerimeter=0;" parent="1" source="KH4IyGDIZktf-V-J-w1Y-138" target="KH4IyGDIZktf-V-J-w1Y-119" edge="1">
          <mxGeometry relative="1" as="geometry" />
        </mxCell>
        <mxCell id="KH4IyGDIZktf-V-J-w1Y-137" value="" style="shape=table;startSize=0;container=1;collapsible=0;childLayout=tableLayout;" parent="1" vertex="1">
          <mxGeometry x="20" y="350" width="425" height="40" as="geometry" />
        </mxCell>
        <mxCell id="KH4IyGDIZktf-V-J-w1Y-138" value="" style="shape=tableRow;horizontal=0;startSize=0;swimlaneHead=0;swimlaneBody=0;strokeColor=inherit;top=0;left=0;bottom=0;right=0;collapsible=0;dropTarget=0;fillColor=none;points=[[0,0.5],[1,0.5]];portConstraint=eastwest;" parent="KH4IyGDIZktf-V-J-w1Y-137" vertex="1">
          <mxGeometry width="425" height="40" as="geometry" />
        </mxCell>
        <mxCell id="KH4IyGDIZktf-V-J-w1Y-139" value="&lt;u&gt;id&lt;/u&gt;" style="shape=partialRectangle;html=1;whiteSpace=wrap;connectable=0;strokeColor=inherit;overflow=hidden;fillColor=none;top=0;left=0;bottom=0;right=0;pointerEvents=1;" parent="KH4IyGDIZktf-V-J-w1Y-138" vertex="1">
          <mxGeometry width="40" height="40" as="geometry">
            <mxRectangle width="40" height="40" as="alternateBounds" />
          </mxGeometry>
        </mxCell>
        <mxCell id="KH4IyGDIZktf-V-J-w1Y-140" value="&lt;u&gt;trainer_id&lt;/u&gt;" style="shape=partialRectangle;html=1;whiteSpace=wrap;connectable=0;strokeColor=inherit;overflow=hidden;fillColor=none;top=0;left=0;bottom=0;right=0;pointerEvents=1;" parent="KH4IyGDIZktf-V-J-w1Y-138" vertex="1">
          <mxGeometry x="40" width="80" height="40" as="geometry">
            <mxRectangle width="80" height="40" as="alternateBounds" />
          </mxGeometry>
        </mxCell>
        <mxCell id="KH4IyGDIZktf-V-J-w1Y-141" value="available_start" style="shape=partialRectangle;html=1;whiteSpace=wrap;connectable=0;strokeColor=inherit;overflow=hidden;fillColor=none;top=0;left=0;bottom=0;right=0;pointerEvents=1;" parent="KH4IyGDIZktf-V-J-w1Y-138" vertex="1">
          <mxGeometry x="120" width="135" height="40" as="geometry">
            <mxRectangle width="135" height="40" as="alternateBounds" />
          </mxGeometry>
        </mxCell>
        <mxCell id="KH4IyGDIZktf-V-J-w1Y-142" value="available_end" style="shape=partialRectangle;html=1;whiteSpace=wrap;connectable=0;strokeColor=inherit;overflow=hidden;fillColor=none;top=0;left=0;bottom=0;right=0;pointerEvents=1;" parent="KH4IyGDIZktf-V-J-w1Y-138" vertex="1">
          <mxGeometry x="255" width="85" height="40" as="geometry">
            <mxRectangle width="85" height="40" as="alternateBounds" />
          </mxGeometry>
        </mxCell>
        <mxCell id="_0XU8xSKwOUcUTpyeZFr-1" value="open" style="shape=partialRectangle;html=1;whiteSpace=wrap;connectable=0;strokeColor=inherit;overflow=hidden;fillColor=none;top=0;left=0;bottom=0;right=0;pointerEvents=1;" parent="KH4IyGDIZktf-V-J-w1Y-138" vertex="1">
          <mxGeometry x="340" width="85" height="40" as="geometry">
            <mxRectangle width="85" height="40" as="alternateBounds" />
          </mxGeometry>
        </mxCell>
        <mxCell id="KH4IyGDIZktf-V-J-w1Y-143" value="Availability" style="text;html=1;align=center;verticalAlign=middle;resizable=0;points=[];autosize=1;strokeColor=none;fillColor=none;" parent="1" vertex="1">
          <mxGeometry y="320" width="80" height="30" as="geometry" />
        </mxCell>
        <mxCell id="KH4IyGDIZktf-V-J-w1Y-144" value="" style="shape=table;startSize=0;container=1;collapsible=0;childLayout=tableLayout;" parent="1" vertex="1">
          <mxGeometry x="20" y="440" width="240" height="40" as="geometry" />
        </mxCell>
        <mxCell id="KH4IyGDIZktf-V-J-w1Y-145" value="" style="shape=tableRow;horizontal=0;startSize=0;swimlaneHead=0;swimlaneBody=0;strokeColor=inherit;top=0;left=0;bottom=0;right=0;collapsible=0;dropTarget=0;fillColor=none;points=[[0,0.5],[1,0.5]];portConstraint=eastwest;" parent="KH4IyGDIZktf-V-J-w1Y-144" vertex="1">
          <mxGeometry width="240" height="40" as="geometry" />
        </mxCell>
        <mxCell id="KH4IyGDIZktf-V-J-w1Y-146" value="&lt;u&gt;id&lt;/u&gt;" style="shape=partialRectangle;html=1;whiteSpace=wrap;connectable=0;strokeColor=inherit;overflow=hidden;fillColor=none;top=0;left=0;bottom=0;right=0;pointerEvents=1;" parent="KH4IyGDIZktf-V-J-w1Y-145" vertex="1">
          <mxGeometry width="40" height="40" as="geometry">
            <mxRectangle width="40" height="40" as="alternateBounds" />
          </mxGeometry>
        </mxCell>
        <mxCell id="KH4IyGDIZktf-V-J-w1Y-147" value="username" style="shape=partialRectangle;html=1;whiteSpace=wrap;connectable=0;strokeColor=inherit;overflow=hidden;fillColor=none;top=0;left=0;bottom=0;right=0;pointerEvents=1;" parent="KH4IyGDIZktf-V-J-w1Y-145" vertex="1">
          <mxGeometry x="40" width="80" height="40" as="geometry">
            <mxRectangle width="80" height="40" as="alternateBounds" />
          </mxGeometry>
        </mxCell>
        <mxCell id="KH4IyGDIZktf-V-J-w1Y-148" value="password" style="shape=partialRectangle;html=1;whiteSpace=wrap;connectable=0;strokeColor=inherit;overflow=hidden;fillColor=none;top=0;left=0;bottom=0;right=0;pointerEvents=1;" parent="KH4IyGDIZktf-V-J-w1Y-145" vertex="1">
          <mxGeometry x="120" width="60" height="40" as="geometry">
            <mxRectangle width="60" height="40" as="alternateBounds" />
          </mxGeometry>
        </mxCell>
        <mxCell id="KH4IyGDIZktf-V-J-w1Y-149" value="name" style="shape=partialRectangle;html=1;whiteSpace=wrap;connectable=0;strokeColor=inherit;overflow=hidden;fillColor=none;top=0;left=0;bottom=0;right=0;pointerEvents=1;" parent="KH4IyGDIZktf-V-J-w1Y-145" vertex="1">
          <mxGeometry x="180" width="60" height="40" as="geometry">
            <mxRectangle width="60" height="40" as="alternateBounds" />
          </mxGeometry>
        </mxCell>
        <mxCell id="KH4IyGDIZktf-V-J-w1Y-150" value="Admin" style="text;html=1;align=center;verticalAlign=middle;resizable=0;points=[];autosize=1;strokeColor=none;fillColor=none;" parent="1" vertex="1">
          <mxGeometry y="410" width="60" height="30" as="geometry" />
        </mxCell>
        <mxCell id="_0XU8xSKwOUcUTpyeZFr-4" style="edgeStyle=orthogonalEdgeStyle;rounded=0;orthogonalLoop=1;jettySize=auto;html=1;entryX=-0.001;entryY=0.719;entryDx=0;entryDy=0;entryPerimeter=0;fontFamily=Helvetica;fontSize=12;fontColor=default;startSize=0;" parent="1" source="KH4IyGDIZktf-V-J-w1Y-151" target="KH4IyGDIZktf-V-J-w1Y-138" edge="1">
          <mxGeometry relative="1" as="geometry">
            <Array as="points">
              <mxPoint x="100" y="520" />
              <mxPoint x="-70" y="520" />
              <mxPoint x="-70" y="379" />
            </Array>
          </mxGeometry>
        </mxCell>
        <mxCell id="KH4IyGDIZktf-V-J-w1Y-151" value="" style="shape=table;startSize=0;container=1;collapsible=0;childLayout=tableLayout;" parent="1" vertex="1">
          <mxGeometry x="20" y="550" width="240" height="40" as="geometry" />
        </mxCell>
        <mxCell id="KH4IyGDIZktf-V-J-w1Y-152" value="" style="shape=tableRow;horizontal=0;startSize=0;swimlaneHead=0;swimlaneBody=0;strokeColor=inherit;top=0;left=0;bottom=0;right=0;collapsible=0;dropTarget=0;fillColor=none;points=[[0,0.5],[1,0.5]];portConstraint=eastwest;" parent="KH4IyGDIZktf-V-J-w1Y-151" vertex="1">
          <mxGeometry width="240" height="40" as="geometry" />
        </mxCell>
        <mxCell id="KH4IyGDIZktf-V-J-w1Y-153" value="&lt;u&gt;id&lt;/u&gt;" style="shape=partialRectangle;html=1;whiteSpace=wrap;connectable=0;strokeColor=inherit;overflow=hidden;fillColor=none;top=0;left=0;bottom=0;right=0;pointerEvents=1;" parent="KH4IyGDIZktf-V-J-w1Y-152" vertex="1">
          <mxGeometry width="40" height="40" as="geometry">
            <mxRectangle width="40" height="40" as="alternateBounds" />
          </mxGeometry>
        </mxCell>
        <mxCell id="_0XU8xSKwOUcUTpyeZFr-3" value="availability_id" style="shape=partialRectangle;html=1;whiteSpace=wrap;connectable=0;strokeColor=inherit;overflow=hidden;fillColor=none;top=0;left=0;bottom=0;right=0;pointerEvents=1;" parent="KH4IyGDIZktf-V-J-w1Y-152" vertex="1">
          <mxGeometry x="40" width="80" height="40" as="geometry">
            <mxRectangle width="80" height="40" as="alternateBounds" />
          </mxGeometry>
        </mxCell>
        <mxCell id="KH4IyGDIZktf-V-J-w1Y-155" value="room_id" style="shape=partialRectangle;html=1;whiteSpace=wrap;connectable=0;strokeColor=inherit;overflow=hidden;fillColor=none;top=0;left=0;bottom=0;right=0;pointerEvents=1;" parent="KH4IyGDIZktf-V-J-w1Y-152" vertex="1">
          <mxGeometry x="120" width="60" height="40" as="geometry">
            <mxRectangle width="60" height="40" as="alternateBounds" />
          </mxGeometry>
        </mxCell>
        <mxCell id="KH4IyGDIZktf-V-J-w1Y-156" value="name" style="shape=partialRectangle;html=1;whiteSpace=wrap;connectable=0;strokeColor=inherit;overflow=hidden;fillColor=none;top=0;left=0;bottom=0;right=0;pointerEvents=1;" parent="KH4IyGDIZktf-V-J-w1Y-152" vertex="1">
          <mxGeometry x="180" width="60" height="40" as="geometry">
            <mxRectangle width="60" height="40" as="alternateBounds" />
          </mxGeometry>
        </mxCell>
        <mxCell id="KH4IyGDIZktf-V-J-w1Y-158" value="Classes" style="text;html=1;align=center;verticalAlign=middle;resizable=0;points=[];autosize=1;strokeColor=none;fillColor=none;" parent="1" vertex="1">
          <mxGeometry y="520" width="70" height="30" as="geometry" />
        </mxCell>
        <mxCell id="KH4IyGDIZktf-V-J-w1Y-192" style="edgeStyle=orthogonalEdgeStyle;rounded=0;orthogonalLoop=1;jettySize=auto;html=1;entryX=0;entryY=0.5;entryDx=0;entryDy=0;fontFamily=Helvetica;fontSize=12;fontColor=default;startSize=0;exitX=0.575;exitY=0.025;exitDx=0;exitDy=0;exitPerimeter=0;" parent="1" source="KH4IyGDIZktf-V-J-w1Y-160" target="KH4IyGDIZktf-V-J-w1Y-97" edge="1">
          <mxGeometry relative="1" as="geometry">
            <Array as="points">
              <mxPoint x="110" y="641" />
              <mxPoint x="110" y="610" />
              <mxPoint x="-80" y="610" />
              <mxPoint x="-80" y="60" />
            </Array>
          </mxGeometry>
        </mxCell>
        <mxCell id="KH4IyGDIZktf-V-J-w1Y-159" value="" style="shape=table;startSize=0;container=1;collapsible=0;childLayout=tableLayout;" parent="1" vertex="1">
          <mxGeometry x="20" y="640" width="160" height="40" as="geometry" />
        </mxCell>
        <mxCell id="KH4IyGDIZktf-V-J-w1Y-160" value="" style="shape=tableRow;horizontal=0;startSize=0;swimlaneHead=0;swimlaneBody=0;strokeColor=inherit;top=0;left=0;bottom=0;right=0;collapsible=0;dropTarget=0;fillColor=none;points=[[0,0.5],[1,0.5]];portConstraint=eastwest;" parent="KH4IyGDIZktf-V-J-w1Y-159" vertex="1">
          <mxGeometry width="160" height="40" as="geometry" />
        </mxCell>
        <mxCell id="KH4IyGDIZktf-V-J-w1Y-162" value="&lt;u&gt;member_id&lt;/u&gt;" style="shape=partialRectangle;html=1;whiteSpace=wrap;connectable=0;strokeColor=inherit;overflow=hidden;fillColor=none;top=0;left=0;bottom=0;right=0;pointerEvents=1;" parent="KH4IyGDIZktf-V-J-w1Y-160" vertex="1">
          <mxGeometry width="104" height="40" as="geometry">
            <mxRectangle width="104" height="40" as="alternateBounds" />
          </mxGeometry>
        </mxCell>
        <mxCell id="KH4IyGDIZktf-V-J-w1Y-163" value="&lt;u&gt;class_id&lt;/u&gt;" style="shape=partialRectangle;html=1;whiteSpace=wrap;connectable=0;strokeColor=inherit;overflow=hidden;fillColor=none;top=0;left=0;bottom=0;right=0;pointerEvents=1;" parent="KH4IyGDIZktf-V-J-w1Y-160" vertex="1">
          <mxGeometry x="104" width="56" height="40" as="geometry">
            <mxRectangle width="56" height="40" as="alternateBounds" />
          </mxGeometry>
        </mxCell>
        <mxCell id="KH4IyGDIZktf-V-J-w1Y-164" value="Member_Classes" style="text;html=1;align=center;verticalAlign=middle;resizable=0;points=[];autosize=1;strokeColor=none;fillColor=none;fontSize=12;fontFamily=Helvetica;fontColor=default;" parent="1" vertex="1">
          <mxGeometry y="610" width="120" height="30" as="geometry" />
        </mxCell>
        <mxCell id="KH4IyGDIZktf-V-J-w1Y-194" style="edgeStyle=orthogonalEdgeStyle;rounded=0;orthogonalLoop=1;jettySize=auto;html=1;entryX=0;entryY=0.8;entryDx=0;entryDy=0;entryPerimeter=0;fontFamily=Helvetica;fontSize=12;fontColor=default;startSize=0;" parent="1" source="KH4IyGDIZktf-V-J-w1Y-165" target="KH4IyGDIZktf-V-J-w1Y-97" edge="1">
          <mxGeometry relative="1" as="geometry">
            <Array as="points">
              <mxPoint x="100" y="700" />
              <mxPoint x="-30" y="700" />
              <mxPoint x="-30" y="72" />
            </Array>
          </mxGeometry>
        </mxCell>
        <mxCell id="KH4IyGDIZktf-V-J-w1Y-165" value="" style="shape=table;startSize=0;container=1;collapsible=0;childLayout=tableLayout;strokeColor=default;fontFamily=Helvetica;fontSize=12;fontColor=default;fillColor=default;" parent="1" vertex="1">
          <mxGeometry x="20" y="730" width="240" height="40" as="geometry" />
        </mxCell>
        <mxCell id="KH4IyGDIZktf-V-J-w1Y-166" value="" style="shape=tableRow;horizontal=0;startSize=0;swimlaneHead=0;swimlaneBody=0;strokeColor=inherit;top=0;left=0;bottom=0;right=0;collapsible=0;dropTarget=0;fillColor=none;points=[[0,0.5],[1,0.5]];portConstraint=eastwest;fontFamily=Helvetica;fontSize=12;fontColor=default;" parent="KH4IyGDIZktf-V-J-w1Y-165" vertex="1">
          <mxGeometry width="240" height="40" as="geometry" />
        </mxCell>
        <mxCell id="KH4IyGDIZktf-V-J-w1Y-167" value="&lt;u&gt;id&lt;/u&gt;" style="shape=partialRectangle;html=1;whiteSpace=wrap;connectable=0;strokeColor=inherit;overflow=hidden;fillColor=none;top=0;left=0;bottom=0;right=0;pointerEvents=1;fontFamily=Helvetica;fontSize=12;fontColor=default;startSize=0;" parent="KH4IyGDIZktf-V-J-w1Y-166" vertex="1">
          <mxGeometry width="40" height="40" as="geometry">
            <mxRectangle width="40" height="40" as="alternateBounds" />
          </mxGeometry>
        </mxCell>
        <mxCell id="KH4IyGDIZktf-V-J-w1Y-168" value="&lt;u&gt;member_id&lt;/u&gt;" style="shape=partialRectangle;html=1;whiteSpace=wrap;connectable=0;strokeColor=inherit;overflow=hidden;fillColor=none;top=0;left=0;bottom=0;right=0;pointerEvents=1;fontFamily=Helvetica;fontSize=12;fontColor=default;startSize=0;" parent="KH4IyGDIZktf-V-J-w1Y-166" vertex="1">
          <mxGeometry x="40" width="120" height="40" as="geometry">
            <mxRectangle width="120" height="40" as="alternateBounds" />
          </mxGeometry>
        </mxCell>
        <mxCell id="KH4IyGDIZktf-V-J-w1Y-169" value="&lt;u&gt;availability_id&lt;/u&gt;" style="shape=partialRectangle;html=1;whiteSpace=wrap;connectable=0;strokeColor=inherit;overflow=hidden;fillColor=none;top=0;left=0;bottom=0;right=0;pointerEvents=1;fontFamily=Helvetica;fontSize=12;fontColor=default;startSize=0;" parent="KH4IyGDIZktf-V-J-w1Y-166" vertex="1">
          <mxGeometry x="160" width="80" height="40" as="geometry">
            <mxRectangle width="80" height="40" as="alternateBounds" />
          </mxGeometry>
        </mxCell>
        <mxCell id="KH4IyGDIZktf-V-J-w1Y-171" value="Sessions" style="text;html=1;align=center;verticalAlign=middle;resizable=0;points=[];autosize=1;strokeColor=none;fillColor=none;fontSize=12;fontFamily=Helvetica;fontColor=default;" parent="1" vertex="1">
          <mxGeometry y="700" width="70" height="30" as="geometry" />
        </mxCell>
        <mxCell id="KH4IyGDIZktf-V-J-w1Y-172" value="" style="shape=table;startSize=0;container=1;collapsible=0;childLayout=tableLayout;strokeColor=default;fontFamily=Helvetica;fontSize=12;fontColor=default;fillColor=default;" parent="1" vertex="1">
          <mxGeometry x="20" y="820" width="370" height="40" as="geometry" />
        </mxCell>
        <mxCell id="KH4IyGDIZktf-V-J-w1Y-173" value="" style="shape=tableRow;horizontal=0;startSize=0;swimlaneHead=0;swimlaneBody=0;strokeColor=inherit;top=0;left=0;bottom=0;right=0;collapsible=0;dropTarget=0;fillColor=none;points=[[0,0.5],[1,0.5]];portConstraint=eastwest;fontFamily=Helvetica;fontSize=12;fontColor=default;" parent="KH4IyGDIZktf-V-J-w1Y-172" vertex="1">
          <mxGeometry width="370" height="40" as="geometry" />
        </mxCell>
        <mxCell id="KH4IyGDIZktf-V-J-w1Y-174" value="&lt;u&gt;id&lt;/u&gt;" style="shape=partialRectangle;html=1;whiteSpace=wrap;connectable=0;strokeColor=inherit;overflow=hidden;fillColor=none;top=0;left=0;bottom=0;right=0;pointerEvents=1;fontFamily=Helvetica;fontSize=12;fontColor=default;startSize=0;" parent="KH4IyGDIZktf-V-J-w1Y-173" vertex="1">
          <mxGeometry width="35" height="40" as="geometry">
            <mxRectangle width="35" height="40" as="alternateBounds" />
          </mxGeometry>
        </mxCell>
        <mxCell id="KH4IyGDIZktf-V-J-w1Y-175" value="type" style="shape=partialRectangle;html=1;whiteSpace=wrap;connectable=0;strokeColor=inherit;overflow=hidden;fillColor=none;top=0;left=0;bottom=0;right=0;pointerEvents=1;fontFamily=Helvetica;fontSize=12;fontColor=default;startSize=0;" parent="KH4IyGDIZktf-V-J-w1Y-173" vertex="1">
          <mxGeometry x="35" width="88" height="40" as="geometry">
            <mxRectangle width="88" height="40" as="alternateBounds" />
          </mxGeometry>
        </mxCell>
        <mxCell id="KH4IyGDIZktf-V-J-w1Y-176" value="last_maintained" style="shape=partialRectangle;html=1;whiteSpace=wrap;connectable=0;strokeColor=inherit;overflow=hidden;fillColor=none;top=0;left=0;bottom=0;right=0;pointerEvents=1;fontFamily=Helvetica;fontSize=12;fontColor=default;startSize=0;" parent="KH4IyGDIZktf-V-J-w1Y-173" vertex="1">
          <mxGeometry x="123" width="115" height="40" as="geometry">
            <mxRectangle width="115" height="40" as="alternateBounds" />
          </mxGeometry>
        </mxCell>
        <mxCell id="KH4IyGDIZktf-V-J-w1Y-177" value="next_maintenance" style="shape=partialRectangle;html=1;whiteSpace=wrap;connectable=0;strokeColor=inherit;overflow=hidden;fillColor=none;top=0;left=0;bottom=0;right=0;pointerEvents=1;fontFamily=Helvetica;fontSize=12;fontColor=default;startSize=0;" parent="KH4IyGDIZktf-V-J-w1Y-173" vertex="1">
          <mxGeometry x="238" width="132" height="40" as="geometry">
            <mxRectangle width="132" height="40" as="alternateBounds" />
          </mxGeometry>
        </mxCell>
        <mxCell id="KH4IyGDIZktf-V-J-w1Y-178" value="Equipment" style="text;html=1;align=center;verticalAlign=middle;resizable=0;points=[];autosize=1;strokeColor=none;fillColor=none;fontSize=12;fontFamily=Helvetica;fontColor=default;" parent="1" vertex="1">
          <mxGeometry y="790" width="80" height="30" as="geometry" />
        </mxCell>
        <mxCell id="KH4IyGDIZktf-V-J-w1Y-179" value="" style="shape=table;startSize=0;container=1;collapsible=0;childLayout=tableLayout;strokeColor=default;fontFamily=Helvetica;fontSize=12;fontColor=default;fillColor=default;" parent="1" vertex="1">
          <mxGeometry x="20" y="920" width="360" height="40" as="geometry" />
        </mxCell>
        <mxCell id="KH4IyGDIZktf-V-J-w1Y-180" value="" style="shape=tableRow;horizontal=0;startSize=0;swimlaneHead=0;swimlaneBody=0;strokeColor=inherit;top=0;left=0;bottom=0;right=0;collapsible=0;dropTarget=0;fillColor=none;points=[[0,0.5],[1,0.5]];portConstraint=eastwest;fontFamily=Helvetica;fontSize=12;fontColor=default;" parent="KH4IyGDIZktf-V-J-w1Y-179" vertex="1">
          <mxGeometry width="360" height="40" as="geometry" />
        </mxCell>
        <mxCell id="KH4IyGDIZktf-V-J-w1Y-181" value="&lt;u&gt;id&lt;/u&gt;" style="shape=partialRectangle;html=1;whiteSpace=wrap;connectable=0;strokeColor=inherit;overflow=hidden;fillColor=none;top=0;left=0;bottom=0;right=0;pointerEvents=1;fontFamily=Helvetica;fontSize=12;fontColor=default;startSize=0;" parent="KH4IyGDIZktf-V-J-w1Y-180" vertex="1">
          <mxGeometry width="40" height="40" as="geometry">
            <mxRectangle width="40" height="40" as="alternateBounds" />
          </mxGeometry>
        </mxCell>
        <mxCell id="KH4IyGDIZktf-V-J-w1Y-182" value="&lt;u&gt;member_id&lt;/u&gt;" style="shape=partialRectangle;html=1;whiteSpace=wrap;connectable=0;strokeColor=inherit;overflow=hidden;fillColor=none;top=0;left=0;bottom=0;right=0;pointerEvents=1;fontFamily=Helvetica;fontSize=12;fontColor=default;startSize=0;" parent="KH4IyGDIZktf-V-J-w1Y-180" vertex="1">
          <mxGeometry x="40" width="80" height="40" as="geometry">
            <mxRectangle width="80" height="40" as="alternateBounds" />
          </mxGeometry>
        </mxCell>
        <mxCell id="KH4IyGDIZktf-V-J-w1Y-183" value="amount" style="shape=partialRectangle;html=1;whiteSpace=wrap;connectable=0;strokeColor=inherit;overflow=hidden;fillColor=none;top=0;left=0;bottom=0;right=0;pointerEvents=1;fontFamily=Helvetica;fontSize=12;fontColor=default;startSize=0;" parent="KH4IyGDIZktf-V-J-w1Y-180" vertex="1">
          <mxGeometry x="120" width="60" height="40" as="geometry">
            <mxRectangle width="60" height="40" as="alternateBounds" />
          </mxGeometry>
        </mxCell>
        <mxCell id="KH4IyGDIZktf-V-J-w1Y-184" value="paid" style="shape=partialRectangle;html=1;whiteSpace=wrap;connectable=0;strokeColor=inherit;overflow=hidden;fillColor=none;top=0;left=0;bottom=0;right=0;pointerEvents=1;fontFamily=Helvetica;fontSize=12;fontColor=default;startSize=0;" parent="KH4IyGDIZktf-V-J-w1Y-180" vertex="1">
          <mxGeometry x="180" width="60" height="40" as="geometry">
            <mxRectangle width="60" height="40" as="alternateBounds" />
          </mxGeometry>
        </mxCell>
        <mxCell id="KH4IyGDIZktf-V-J-w1Y-185" value="type" style="shape=partialRectangle;html=1;whiteSpace=wrap;connectable=0;strokeColor=inherit;overflow=hidden;fillColor=none;top=0;left=0;bottom=0;right=0;pointerEvents=1;fontFamily=Helvetica;fontSize=12;fontColor=default;startSize=0;" parent="KH4IyGDIZktf-V-J-w1Y-180" vertex="1">
          <mxGeometry x="240" width="60" height="40" as="geometry">
            <mxRectangle width="60" height="40" as="alternateBounds" />
          </mxGeometry>
        </mxCell>
        <mxCell id="KH4IyGDIZktf-V-J-w1Y-186" value="date" style="shape=partialRectangle;html=1;whiteSpace=wrap;connectable=0;strokeColor=inherit;overflow=hidden;fillColor=none;top=0;left=0;bottom=0;right=0;pointerEvents=1;fontFamily=Helvetica;fontSize=12;fontColor=default;startSize=0;" parent="KH4IyGDIZktf-V-J-w1Y-180" vertex="1">
          <mxGeometry x="300" width="60" height="40" as="geometry">
            <mxRectangle width="60" height="40" as="alternateBounds" />
          </mxGeometry>
        </mxCell>
        <mxCell id="KH4IyGDIZktf-V-J-w1Y-187" value="Bill" style="text;html=1;align=center;verticalAlign=middle;resizable=0;points=[];autosize=1;strokeColor=none;fillColor=none;fontSize=12;fontFamily=Helvetica;fontColor=default;" parent="1" vertex="1">
          <mxGeometry y="890" width="40" height="30" as="geometry" />
        </mxCell>
        <mxCell id="KH4IyGDIZktf-V-J-w1Y-193" style="edgeStyle=orthogonalEdgeStyle;rounded=0;orthogonalLoop=1;jettySize=auto;html=1;fontFamily=Helvetica;fontSize=12;fontColor=default;startSize=0;" parent="1" source="KH4IyGDIZktf-V-J-w1Y-160" target="KH4IyGDIZktf-V-J-w1Y-152" edge="1">
          <mxGeometry relative="1" as="geometry">
            <Array as="points">
              <mxPoint x="240" y="660" />
              <mxPoint x="240" y="600" />
              <mxPoint y="600" />
              <mxPoint y="570" />
            </Array>
          </mxGeometry>
        </mxCell>
        <mxCell id="KH4IyGDIZktf-V-J-w1Y-196" style="edgeStyle=orthogonalEdgeStyle;rounded=0;orthogonalLoop=1;jettySize=auto;html=1;entryX=-0.002;entryY=0.175;entryDx=0;entryDy=0;entryPerimeter=0;fontFamily=Helvetica;fontSize=12;fontColor=default;startSize=0;" parent="1" source="KH4IyGDIZktf-V-J-w1Y-180" target="KH4IyGDIZktf-V-J-w1Y-97" edge="1">
          <mxGeometry relative="1" as="geometry">
            <Array as="points">
              <mxPoint x="100" y="890" />
              <mxPoint x="-120" y="890" />
              <mxPoint x="-120" y="47" />
            </Array>
          </mxGeometry>
        </mxCell>
        <mxCell id="_0XU8xSKwOUcUTpyeZFr-2" style="edgeStyle=orthogonalEdgeStyle;rounded=0;orthogonalLoop=1;jettySize=auto;html=1;entryX=0;entryY=0.5;entryDx=0;entryDy=0;fontFamily=Helvetica;fontSize=12;fontColor=default;startSize=0;exitX=1;exitY=0.5;exitDx=0;exitDy=0;" parent="1" source="KH4IyGDIZktf-V-J-w1Y-166" target="KH4IyGDIZktf-V-J-w1Y-138" edge="1">
          <mxGeometry relative="1" as="geometry">
            <Array as="points">
              <mxPoint x="290" y="750" />
              <mxPoint x="290" y="780" />
              <mxPoint x="-10" y="780" />
              <mxPoint x="-10" y="370" />
            </Array>
          </mxGeometry>
        </mxCell>
        <mxCell id="bJ2Hw2XYMu5UoiXICymQ-1" value="" style="shape=table;startSize=0;container=1;collapsible=0;childLayout=tableLayout;strokeColor=default;fontFamily=Helvetica;fontSize=12;fontColor=default;fillColor=default;" parent="1" vertex="1">
          <mxGeometry x="280" y="500" width="120" height="40" as="geometry" />
        </mxCell>
        <mxCell id="bJ2Hw2XYMu5UoiXICymQ-2" value="" style="shape=tableRow;horizontal=0;startSize=0;swimlaneHead=0;swimlaneBody=0;strokeColor=inherit;top=0;left=0;bottom=0;right=0;collapsible=0;dropTarget=0;fillColor=none;points=[[0,0.5],[1,0.5]];portConstraint=eastwest;fontFamily=Helvetica;fontSize=12;fontColor=default;" parent="bJ2Hw2XYMu5UoiXICymQ-1" vertex="1">
          <mxGeometry width="120" height="40" as="geometry" />
        </mxCell>
        <mxCell id="bJ2Hw2XYMu5UoiXICymQ-3" value="id" style="shape=partialRectangle;html=1;whiteSpace=wrap;connectable=0;strokeColor=inherit;overflow=hidden;fillColor=none;top=0;left=0;bottom=0;right=0;pointerEvents=1;fontFamily=Helvetica;fontSize=12;fontColor=default;startSize=0;" parent="bJ2Hw2XYMu5UoiXICymQ-2" vertex="1">
          <mxGeometry width="60" height="40" as="geometry">
            <mxRectangle width="60" height="40" as="alternateBounds" />
          </mxGeometry>
        </mxCell>
        <mxCell id="bJ2Hw2XYMu5UoiXICymQ-4" value="name" style="shape=partialRectangle;html=1;whiteSpace=wrap;connectable=0;strokeColor=inherit;overflow=hidden;fillColor=none;top=0;left=0;bottom=0;right=0;pointerEvents=1;fontFamily=Helvetica;fontSize=12;fontColor=default;startSize=0;" parent="bJ2Hw2XYMu5UoiXICymQ-2" vertex="1">
          <mxGeometry x="60" width="60" height="40" as="geometry">
            <mxRectangle width="60" height="40" as="alternateBounds" />
          </mxGeometry>
        </mxCell>
        <mxCell id="bJ2Hw2XYMu5UoiXICymQ-5" value="Room" style="text;html=1;align=center;verticalAlign=middle;resizable=0;points=[];autosize=1;strokeColor=none;fillColor=none;fontSize=12;fontFamily=Helvetica;fontColor=default;" parent="1" vertex="1">
          <mxGeometry x="270" y="470" width="60" height="30" as="geometry" />
        </mxCell>
        <mxCell id="bJ2Hw2XYMu5UoiXICymQ-6" style="edgeStyle=orthogonalEdgeStyle;rounded=0;orthogonalLoop=1;jettySize=auto;html=1;entryX=0.602;entryY=-0.008;entryDx=0;entryDy=0;entryPerimeter=0;fontFamily=Helvetica;fontSize=12;fontColor=default;startSize=0;" parent="1" source="bJ2Hw2XYMu5UoiXICymQ-2" target="KH4IyGDIZktf-V-J-w1Y-152" edge="1">
          <mxGeometry relative="1" as="geometry" />
        </mxCell>
      </root>
    </mxGraphModel>
  </diagram>
  <diagram id="5HfkUOB3nwZ6-5bqqxvv" name="ER Model">
    <mxGraphModel dx="4044" dy="2314" grid="1" gridSize="10" guides="1" tooltips="1" connect="1" arrows="1" fold="1" page="1" pageScale="1" pageWidth="850" pageHeight="1100" math="0" shadow="0">
      <root>
        <mxCell id="0" />
        <mxCell id="1" parent="0" />
        <mxCell id="vUnBG-eYcGrn4Uv5GQZv-1" value="Member" style="swimlane;childLayout=stackLayout;horizontal=1;startSize=30;horizontalStack=0;rounded=1;fontSize=14;fontStyle=0;strokeWidth=2;resizeParent=0;resizeLast=1;shadow=0;dashed=0;align=center;arcSize=4;whiteSpace=wrap;html=1;strokeColor=default;fontFamily=Helvetica;fontColor=default;fillColor=default;" parent="1" vertex="1">
          <mxGeometry x="235" y="30" width="150" height="210" as="geometry" />
        </mxCell>
        <mxCell id="vUnBG-eYcGrn4Uv5GQZv-2" value="&lt;u&gt;id&lt;/u&gt;&lt;br&gt;username&lt;br&gt;password&lt;br&gt;name&lt;br&gt;profile_info&lt;br&gt;fitness_goals&lt;br&gt;health_metrics&lt;br&gt;height&lt;br&gt;weight&lt;br&gt;goal_weight&lt;br&gt;goal_workouts_per_week" style="align=left;strokeColor=none;fillColor=none;spacingLeft=4;fontSize=12;verticalAlign=top;resizable=0;rotatable=0;part=1;html=1;fontFamily=Helvetica;fontColor=default;startSize=0;" parent="vUnBG-eYcGrn4Uv5GQZv-1" vertex="1">
          <mxGeometry y="30" width="150" height="180" as="geometry" />
        </mxCell>
        <mxCell id="vUnBG-eYcGrn4Uv5GQZv-6" value="enrolls in" style="shape=rhombus;perimeter=rhombusPerimeter;whiteSpace=wrap;html=1;align=center;strokeColor=default;fontFamily=Helvetica;fontSize=12;fontColor=default;startSize=0;fillColor=default;" parent="1" vertex="1">
          <mxGeometry x="85" y="330" width="120" height="60" as="geometry" />
        </mxCell>
        <mxCell id="vUnBG-eYcGrn4Uv5GQZv-7" value="books" style="shape=rhombus;perimeter=rhombusPerimeter;whiteSpace=wrap;html=1;align=center;strokeColor=default;fontFamily=Helvetica;fontSize=12;fontColor=default;startSize=0;fillColor=default;" parent="1" vertex="1">
          <mxGeometry x="234.5" y="340" width="120" height="60" as="geometry" />
        </mxCell>
        <mxCell id="vUnBG-eYcGrn4Uv5GQZv-8" value="has" style="shape=rhombus;perimeter=rhombusPerimeter;whiteSpace=wrap;html=1;align=center;strokeColor=default;fontFamily=Helvetica;fontSize=12;fontColor=default;startSize=0;fillColor=default;" parent="1" vertex="1">
          <mxGeometry x="390" y="350" width="120" height="60" as="geometry" />
        </mxCell>
        <mxCell id="vUnBG-eYcGrn4Uv5GQZv-9" value="pays" style="shape=rhombus;perimeter=rhombusPerimeter;whiteSpace=wrap;html=1;align=center;strokeColor=default;fontFamily=Helvetica;fontSize=12;fontColor=default;startSize=0;fillColor=default;" parent="1" vertex="1">
          <mxGeometry x="530" y="350" width="120" height="60" as="geometry" />
        </mxCell>
        <mxCell id="vUnBG-eYcGrn4Uv5GQZv-13" value="Class" style="swimlane;childLayout=stackLayout;horizontal=1;startSize=30;horizontalStack=0;rounded=1;fontSize=14;fontStyle=0;strokeWidth=2;resizeParent=0;resizeLast=1;shadow=0;dashed=0;align=center;arcSize=4;whiteSpace=wrap;html=1;strokeColor=default;fontFamily=Helvetica;fontColor=default;fillColor=default;" parent="1" vertex="1">
          <mxGeometry x="30" y="470" width="130" height="130" as="geometry" />
        </mxCell>
        <mxCell id="vUnBG-eYcGrn4Uv5GQZv-14" value="&lt;u&gt;id&lt;/u&gt;&lt;br&gt;&lt;u&gt;availability_id&lt;/u&gt;&lt;br&gt;&lt;u&gt;room_id&lt;/u&gt;&lt;br&gt;&lt;u&gt;name&lt;/u&gt;&lt;br&gt;schedule" style="align=left;strokeColor=none;fillColor=none;spacingLeft=4;fontSize=12;verticalAlign=top;resizable=0;rotatable=0;part=1;html=1;fontFamily=Helvetica;fontColor=default;startSize=0;" parent="vUnBG-eYcGrn4Uv5GQZv-13" vertex="1">
          <mxGeometry y="30" width="130" height="100" as="geometry" />
        </mxCell>
        <mxCell id="vUnBG-eYcGrn4Uv5GQZv-17" value="Sessions" style="swimlane;childLayout=stackLayout;horizontal=1;startSize=30;horizontalStack=0;rounded=1;fontSize=14;fontStyle=0;strokeWidth=2;resizeParent=0;resizeLast=1;shadow=0;dashed=0;align=center;arcSize=4;whiteSpace=wrap;html=1;strokeColor=default;fontFamily=Helvetica;fontColor=default;fillColor=default;" parent="1" vertex="1">
          <mxGeometry x="210" y="470" width="130" height="130" as="geometry" />
        </mxCell>
        <mxCell id="vUnBG-eYcGrn4Uv5GQZv-18" value="&lt;u&gt;id&lt;br&gt;member_id&lt;br&gt;availability_id&lt;/u&gt;" style="align=left;strokeColor=none;fillColor=none;spacingLeft=4;fontSize=12;verticalAlign=top;resizable=0;rotatable=0;part=1;html=1;fontFamily=Helvetica;fontColor=default;startSize=0;" parent="vUnBG-eYcGrn4Uv5GQZv-17" vertex="1">
          <mxGeometry y="30" width="130" height="100" as="geometry" />
        </mxCell>
        <mxCell id="vUnBG-eYcGrn4Uv5GQZv-19" value="Routine" style="swimlane;childLayout=stackLayout;horizontal=1;startSize=30;horizontalStack=0;rounded=1;fontSize=14;fontStyle=0;strokeWidth=2;resizeParent=0;resizeLast=1;shadow=0;dashed=0;align=center;arcSize=4;whiteSpace=wrap;html=1;strokeColor=default;fontFamily=Helvetica;fontColor=default;fillColor=default;" parent="1" vertex="1">
          <mxGeometry x="385" y="470" width="130" height="130" as="geometry" />
        </mxCell>
        <mxCell id="vUnBG-eYcGrn4Uv5GQZv-20" value="&lt;u&gt;id&lt;/u&gt;&lt;br&gt;&lt;u&gt;member_id&lt;/u&gt;&lt;br&gt;type&lt;br&gt;date" style="align=left;strokeColor=none;fillColor=none;spacingLeft=4;fontSize=12;verticalAlign=top;resizable=0;rotatable=0;part=1;html=1;fontFamily=Helvetica;fontColor=default;startSize=0;" parent="vUnBG-eYcGrn4Uv5GQZv-19" vertex="1">
          <mxGeometry y="30" width="130" height="100" as="geometry" />
        </mxCell>
        <mxCell id="vUnBG-eYcGrn4Uv5GQZv-21" value="Bill" style="swimlane;childLayout=stackLayout;horizontal=1;startSize=30;horizontalStack=0;rounded=1;fontSize=14;fontStyle=0;strokeWidth=2;resizeParent=0;resizeLast=1;shadow=0;dashed=0;align=center;arcSize=4;whiteSpace=wrap;html=1;strokeColor=default;fontFamily=Helvetica;fontColor=default;fillColor=default;" parent="1" vertex="1">
          <mxGeometry x="590" y="470" width="130" height="130" as="geometry" />
        </mxCell>
        <mxCell id="vUnBG-eYcGrn4Uv5GQZv-22" value="&lt;u&gt;id&lt;br&gt;member_id&lt;/u&gt;&lt;br&gt;amount&lt;br&gt;paid&lt;br&gt;type&lt;br&gt;date" style="align=left;strokeColor=none;fillColor=none;spacingLeft=4;fontSize=12;verticalAlign=top;resizable=0;rotatable=0;part=1;html=1;fontFamily=Helvetica;fontColor=default;startSize=0;" parent="vUnBG-eYcGrn4Uv5GQZv-21" vertex="1">
          <mxGeometry y="30" width="130" height="100" as="geometry" />
        </mxCell>
        <mxCell id="vUnBG-eYcGrn4Uv5GQZv-23" value="Admin" style="swimlane;childLayout=stackLayout;horizontal=1;startSize=30;horizontalStack=0;rounded=1;fontSize=14;fontStyle=0;strokeWidth=2;resizeParent=0;resizeLast=1;shadow=0;dashed=0;align=center;arcSize=4;whiteSpace=wrap;html=1;strokeColor=default;fontFamily=Helvetica;fontColor=default;fillColor=default;" parent="1" vertex="1">
          <mxGeometry x="930" y="210" width="130" height="130" as="geometry" />
        </mxCell>
        <mxCell id="vUnBG-eYcGrn4Uv5GQZv-24" value="&lt;u&gt;id&lt;br&gt;&lt;/u&gt;username&lt;br&gt;password&lt;br&gt;name" style="align=left;strokeColor=none;fillColor=none;spacingLeft=4;fontSize=12;verticalAlign=top;resizable=0;rotatable=0;part=1;html=1;fontFamily=Helvetica;fontColor=default;startSize=0;" parent="vUnBG-eYcGrn4Uv5GQZv-23" vertex="1">
          <mxGeometry y="30" width="130" height="100" as="geometry" />
        </mxCell>
        <mxCell id="vUnBG-eYcGrn4Uv5GQZv-25" value="Equipment" style="swimlane;childLayout=stackLayout;horizontal=1;startSize=30;horizontalStack=0;rounded=1;fontSize=14;fontStyle=0;strokeWidth=2;resizeParent=0;resizeLast=1;shadow=0;dashed=0;align=center;arcSize=4;whiteSpace=wrap;html=1;strokeColor=default;fontFamily=Helvetica;fontColor=default;fillColor=default;" parent="1" vertex="1">
          <mxGeometry x="960" y="590" width="130" height="130" as="geometry" />
        </mxCell>
        <mxCell id="vUnBG-eYcGrn4Uv5GQZv-26" value="&lt;u&gt;id&lt;/u&gt;&lt;br&gt;type&lt;br&gt;last_maintained&lt;br&gt;next_maintenance" style="align=left;strokeColor=none;fillColor=none;spacingLeft=4;fontSize=12;verticalAlign=top;resizable=0;rotatable=0;part=1;html=1;fontFamily=Helvetica;fontColor=default;startSize=0;" parent="vUnBG-eYcGrn4Uv5GQZv-25" vertex="1">
          <mxGeometry y="30" width="130" height="100" as="geometry" />
        </mxCell>
        <mxCell id="vUnBG-eYcGrn4Uv5GQZv-27" value="Trainer" style="swimlane;childLayout=stackLayout;horizontal=1;startSize=30;horizontalStack=0;rounded=1;fontSize=14;fontStyle=0;strokeWidth=2;resizeParent=0;resizeLast=1;shadow=0;dashed=0;align=center;arcSize=4;whiteSpace=wrap;html=1;strokeColor=default;fontFamily=Helvetica;fontColor=default;fillColor=default;" parent="1" vertex="1">
          <mxGeometry x="120" y="870" width="150" height="130" as="geometry" />
        </mxCell>
        <mxCell id="vUnBG-eYcGrn4Uv5GQZv-28" value="&lt;u&gt;id&lt;/u&gt;&lt;br&gt;username&lt;br&gt;password&lt;br&gt;name" style="align=left;strokeColor=none;fillColor=none;spacingLeft=4;fontSize=12;verticalAlign=top;resizable=0;rotatable=0;part=1;html=1;fontFamily=Helvetica;fontColor=default;startSize=0;" parent="vUnBG-eYcGrn4Uv5GQZv-27" vertex="1">
          <mxGeometry y="30" width="150" height="100" as="geometry" />
        </mxCell>
        <mxCell id="vUnBG-eYcGrn4Uv5GQZv-30" value="Available for" style="shape=rhombus;perimeter=rhombusPerimeter;whiteSpace=wrap;html=1;align=center;strokeColor=default;fontFamily=Helvetica;fontSize=12;fontColor=default;startSize=0;fillColor=default;" parent="1" vertex="1">
          <mxGeometry x="130" y="700" width="120" height="60" as="geometry" />
        </mxCell>
        <mxCell id="vUnBG-eYcGrn4Uv5GQZv-32" value="proceses" style="shape=rhombus;perimeter=rhombusPerimeter;whiteSpace=wrap;html=1;align=center;strokeColor=default;fontFamily=Helvetica;fontSize=12;fontColor=default;startSize=0;fillColor=default;" parent="1" vertex="1">
          <mxGeometry x="740" y="400" width="120" height="60" as="geometry" />
        </mxCell>
        <mxCell id="vUnBG-eYcGrn4Uv5GQZv-33" value="manages" style="shape=rhombus;perimeter=rhombusPerimeter;whiteSpace=wrap;html=1;align=center;strokeColor=default;fontFamily=Helvetica;fontSize=12;fontColor=default;startSize=0;fillColor=default;" parent="1" vertex="1">
          <mxGeometry x="940" y="415" width="150" height="70" as="geometry" />
        </mxCell>
        <mxCell id="PWV3zlkXtr8JktzgzzCb-5" value="" style="endArrow=none;html=1;rounded=0;fontFamily=Helvetica;fontSize=12;fontColor=default;startSize=0;entryX=0.5;entryY=0;entryDx=0;entryDy=0;exitX=0.5;exitY=1;exitDx=0;exitDy=0;" parent="1" source="vUnBG-eYcGrn4Uv5GQZv-30" target="vUnBG-eYcGrn4Uv5GQZv-27" edge="1">
          <mxGeometry relative="1" as="geometry">
            <mxPoint x="320" y="740" as="sourcePoint" />
            <mxPoint x="480" y="740" as="targetPoint" />
          </mxGeometry>
        </mxCell>
        <mxCell id="PWV3zlkXtr8JktzgzzCb-6" value="1" style="resizable=0;html=1;whiteSpace=wrap;align=right;verticalAlign=bottom;strokeColor=default;fontFamily=Helvetica;fontSize=12;fontColor=default;startSize=0;fillColor=default;" parent="PWV3zlkXtr8JktzgzzCb-5" connectable="0" vertex="1">
          <mxGeometry x="1" relative="1" as="geometry" />
        </mxCell>
        <mxCell id="jDOPH2OnY-zHrXKznSGN-5" value="" style="endArrow=none;html=1;rounded=0;fontFamily=Helvetica;fontSize=12;fontColor=default;startSize=0;entryX=0;entryY=1;entryDx=0;entryDy=0;exitX=0.5;exitY=0;exitDx=0;exitDy=0;" parent="1" source="vUnBG-eYcGrn4Uv5GQZv-6" target="vUnBG-eYcGrn4Uv5GQZv-2" edge="1">
          <mxGeometry relative="1" as="geometry">
            <mxPoint x="45" y="280" as="sourcePoint" />
            <mxPoint x="205" y="280" as="targetPoint" />
          </mxGeometry>
        </mxCell>
        <mxCell id="jDOPH2OnY-zHrXKznSGN-6" value="0..*" style="edgeLabel;html=1;align=center;verticalAlign=middle;resizable=0;points=[];fontSize=12;fontFamily=Helvetica;fontColor=default;" parent="jDOPH2OnY-zHrXKznSGN-5" vertex="1" connectable="0">
          <mxGeometry x="0.8248" y="1" relative="1" as="geometry">
            <mxPoint x="-16" y="-7" as="offset" />
          </mxGeometry>
        </mxCell>
        <mxCell id="jDOPH2OnY-zHrXKznSGN-7" value="" style="endArrow=none;html=1;rounded=0;fontFamily=Helvetica;fontSize=12;fontColor=default;startSize=0;exitX=0.25;exitY=0;exitDx=0;exitDy=0;entryX=0.5;entryY=1;entryDx=0;entryDy=0;" parent="1" source="vUnBG-eYcGrn4Uv5GQZv-13" target="vUnBG-eYcGrn4Uv5GQZv-6" edge="1">
          <mxGeometry relative="1" as="geometry">
            <mxPoint x="100" y="434.5" as="sourcePoint" />
            <mxPoint x="260" y="434.5" as="targetPoint" />
          </mxGeometry>
        </mxCell>
        <mxCell id="jDOPH2OnY-zHrXKznSGN-8" value="0..*" style="edgeLabel;html=1;align=center;verticalAlign=middle;resizable=0;points=[];fontSize=12;fontFamily=Helvetica;fontColor=default;" parent="jDOPH2OnY-zHrXKznSGN-7" vertex="1" connectable="0">
          <mxGeometry x="-0.6121" y="-1" relative="1" as="geometry">
            <mxPoint x="-29" y="5" as="offset" />
          </mxGeometry>
        </mxCell>
        <mxCell id="y2WMvPLrFwyyZwJ9DGA0-4" value="Room" style="swimlane;childLayout=stackLayout;horizontal=1;startSize=30;horizontalStack=0;rounded=1;fontSize=14;fontStyle=0;strokeWidth=2;resizeParent=0;resizeLast=1;shadow=0;dashed=0;align=center;arcSize=4;whiteSpace=wrap;html=1;strokeColor=default;fontFamily=Helvetica;fontColor=default;fillColor=default;" parent="1" vertex="1">
          <mxGeometry x="-340" y="400" width="110" height="100" as="geometry" />
        </mxCell>
        <mxCell id="y2WMvPLrFwyyZwJ9DGA0-5" value="&lt;u&gt;id&lt;/u&gt;&lt;br&gt;name" style="align=left;strokeColor=none;fillColor=none;spacingLeft=4;fontSize=12;verticalAlign=top;resizable=0;rotatable=0;part=1;html=1;fontFamily=Helvetica;fontColor=default;startSize=0;" parent="y2WMvPLrFwyyZwJ9DGA0-4" vertex="1">
          <mxGeometry y="30" width="110" height="70" as="geometry" />
        </mxCell>
        <mxCell id="onluGw0ELUDJOCtSdXun-3" value="" style="endArrow=none;html=1;rounded=0;fontFamily=Helvetica;fontSize=12;fontColor=default;startSize=0;entryX=0;entryY=1;entryDx=0;entryDy=0;" parent="1" source="vUnBG-eYcGrn4Uv5GQZv-32" target="vUnBG-eYcGrn4Uv5GQZv-23" edge="1">
          <mxGeometry relative="1" as="geometry">
            <mxPoint x="690" y="320" as="sourcePoint" />
            <mxPoint x="850" y="320" as="targetPoint" />
          </mxGeometry>
        </mxCell>
        <mxCell id="JMpBx7VRB-Dhn8hsCUH9-26" value="0..*" style="edgeLabel;html=1;align=center;verticalAlign=middle;resizable=0;points=[];fontSize=12;fontFamily=Helvetica;fontColor=default;" parent="onluGw0ELUDJOCtSdXun-3" vertex="1" connectable="0">
          <mxGeometry x="0.7302" relative="1" as="geometry">
            <mxPoint x="-6" y="-10" as="offset" />
          </mxGeometry>
        </mxCell>
        <mxCell id="q_z5HYa4RiKaEqVuf-kb-2" value="" style="endArrow=none;html=1;rounded=0;fontFamily=Helvetica;fontSize=12;fontColor=default;startSize=0;entryX=1;entryY=1;entryDx=0;entryDy=0;exitX=0.5;exitY=0;exitDx=0;exitDy=0;" parent="1" source="vUnBG-eYcGrn4Uv5GQZv-9" target="vUnBG-eYcGrn4Uv5GQZv-2" edge="1">
          <mxGeometry width="50" height="50" relative="1" as="geometry">
            <mxPoint x="670" y="280" as="sourcePoint" />
            <mxPoint x="720" y="230" as="targetPoint" />
          </mxGeometry>
        </mxCell>
        <mxCell id="JMpBx7VRB-Dhn8hsCUH9-24" value="1" style="edgeLabel;html=1;align=center;verticalAlign=middle;resizable=0;points=[];fontSize=12;fontFamily=Helvetica;fontColor=default;" parent="q_z5HYa4RiKaEqVuf-kb-2" vertex="1" connectable="0">
          <mxGeometry x="0.8853" y="-3" relative="1" as="geometry">
            <mxPoint x="7" y="-4" as="offset" />
          </mxGeometry>
        </mxCell>
        <mxCell id="q_z5HYa4RiKaEqVuf-kb-4" value="" style="endArrow=none;html=1;rounded=0;fontFamily=Helvetica;fontSize=12;fontColor=default;startSize=0;entryX=0.75;entryY=1;entryDx=0;entryDy=0;exitX=0.5;exitY=0;exitDx=0;exitDy=0;" parent="1" source="vUnBG-eYcGrn4Uv5GQZv-8" target="vUnBG-eYcGrn4Uv5GQZv-2" edge="1">
          <mxGeometry width="50" height="50" relative="1" as="geometry">
            <mxPoint x="590" y="180" as="sourcePoint" />
            <mxPoint x="640" y="130" as="targetPoint" />
          </mxGeometry>
        </mxCell>
        <mxCell id="JMpBx7VRB-Dhn8hsCUH9-23" value="1" style="edgeLabel;html=1;align=center;verticalAlign=middle;resizable=0;points=[];fontSize=12;fontFamily=Helvetica;fontColor=default;" parent="q_z5HYa4RiKaEqVuf-kb-4" vertex="1" connectable="0">
          <mxGeometry x="0.8159" y="1" relative="1" as="geometry">
            <mxPoint x="14" as="offset" />
          </mxGeometry>
        </mxCell>
        <mxCell id="q_z5HYa4RiKaEqVuf-kb-8" value="occupies" style="shape=rhombus;perimeter=rhombusPerimeter;whiteSpace=wrap;html=1;align=center;strokeColor=default;fontFamily=Helvetica;fontSize=12;fontColor=default;startSize=0;fillColor=default;" parent="1" vertex="1">
          <mxGeometry x="-180" y="440" width="120" height="60" as="geometry" />
        </mxCell>
        <mxCell id="q_z5HYa4RiKaEqVuf-kb-9" value="" style="endArrow=none;html=1;rounded=0;fontFamily=Helvetica;fontSize=12;fontColor=default;startSize=0;entryX=0;entryY=1;entryDx=0;entryDy=0;exitX=1;exitY=0;exitDx=0;exitDy=0;" parent="1" source="vUnBG-eYcGrn4Uv5GQZv-21" target="vUnBG-eYcGrn4Uv5GQZv-32" edge="1">
          <mxGeometry width="50" height="50" relative="1" as="geometry">
            <mxPoint x="740" y="540" as="sourcePoint" />
            <mxPoint x="790" y="490" as="targetPoint" />
          </mxGeometry>
        </mxCell>
        <mxCell id="JMpBx7VRB-Dhn8hsCUH9-25" value="0..*" style="edgeLabel;html=1;align=center;verticalAlign=middle;resizable=0;points=[];fontSize=12;fontFamily=Helvetica;fontColor=default;" parent="q_z5HYa4RiKaEqVuf-kb-9" vertex="1" connectable="0">
          <mxGeometry x="-0.616" y="-3" relative="1" as="geometry">
            <mxPoint y="12" as="offset" />
          </mxGeometry>
        </mxCell>
        <mxCell id="q_z5HYa4RiKaEqVuf-kb-10" value="" style="endArrow=none;html=1;rounded=0;fontFamily=Helvetica;fontSize=12;fontColor=default;startSize=0;entryX=0.5;entryY=1;entryDx=0;entryDy=0;exitX=0.5;exitY=0;exitDx=0;exitDy=0;" parent="1" source="vUnBG-eYcGrn4Uv5GQZv-33" target="vUnBG-eYcGrn4Uv5GQZv-24" edge="1">
          <mxGeometry width="50" height="50" relative="1" as="geometry">
            <mxPoint x="860" y="600" as="sourcePoint" />
            <mxPoint x="910" y="550" as="targetPoint" />
          </mxGeometry>
        </mxCell>
        <mxCell id="JMpBx7VRB-Dhn8hsCUH9-27" value="0..*" style="edgeLabel;html=1;align=center;verticalAlign=middle;resizable=0;points=[];fontSize=12;fontFamily=Helvetica;fontColor=default;" parent="q_z5HYa4RiKaEqVuf-kb-10" vertex="1" connectable="0">
          <mxGeometry x="0.668" y="-2" relative="1" as="geometry">
            <mxPoint x="15" y="-2" as="offset" />
          </mxGeometry>
        </mxCell>
        <mxCell id="q_z5HYa4RiKaEqVuf-kb-11" value="" style="endArrow=none;html=1;rounded=0;fontFamily=Helvetica;fontSize=12;fontColor=default;startSize=0;entryX=0.5;entryY=1;entryDx=0;entryDy=0;exitX=0.5;exitY=0;exitDx=0;exitDy=0;" parent="1" source="vUnBG-eYcGrn4Uv5GQZv-25" target="vUnBG-eYcGrn4Uv5GQZv-33" edge="1">
          <mxGeometry width="50" height="50" relative="1" as="geometry">
            <mxPoint x="890" y="540" as="sourcePoint" />
            <mxPoint x="940" y="490" as="targetPoint" />
          </mxGeometry>
        </mxCell>
        <mxCell id="JMpBx7VRB-Dhn8hsCUH9-28" value="0..*" style="edgeLabel;html=1;align=center;verticalAlign=middle;resizable=0;points=[];fontSize=12;fontFamily=Helvetica;fontColor=default;" parent="q_z5HYa4RiKaEqVuf-kb-11" vertex="1" connectable="0">
          <mxGeometry x="-0.7115" y="2" relative="1" as="geometry">
            <mxPoint x="18" as="offset" />
          </mxGeometry>
        </mxCell>
        <mxCell id="q_z5HYa4RiKaEqVuf-kb-19" value="" style="endArrow=none;html=1;rounded=0;fontFamily=Helvetica;fontSize=12;fontColor=default;startSize=0;exitX=1;exitY=0.5;exitDx=0;exitDy=0;entryX=0;entryY=0.5;entryDx=0;entryDy=0;" parent="1" source="y2WMvPLrFwyyZwJ9DGA0-5" target="q_z5HYa4RiKaEqVuf-kb-8" edge="1">
          <mxGeometry width="50" height="50" relative="1" as="geometry">
            <mxPoint x="370" y="510" as="sourcePoint" />
            <mxPoint x="420" y="460" as="targetPoint" />
          </mxGeometry>
        </mxCell>
        <mxCell id="JMpBx7VRB-Dhn8hsCUH9-10" value="1" style="edgeLabel;html=1;align=center;verticalAlign=middle;resizable=0;points=[];fontSize=12;fontFamily=Helvetica;fontColor=default;" parent="q_z5HYa4RiKaEqVuf-kb-19" vertex="1" connectable="0">
          <mxGeometry x="-0.4812" relative="1" as="geometry">
            <mxPoint x="-3" y="-16" as="offset" />
          </mxGeometry>
        </mxCell>
        <mxCell id="JMpBx7VRB-Dhn8hsCUH9-3" value="" style="shape=link;html=1;rounded=0;fontFamily=Helvetica;fontSize=12;fontColor=default;startSize=0;exitX=0.5;exitY=0;exitDx=0;exitDy=0;entryX=0.75;entryY=1;entryDx=0;entryDy=0;" parent="1" source="vUnBG-eYcGrn4Uv5GQZv-30" target="vUnBG-eYcGrn4Uv5GQZv-14" edge="1">
          <mxGeometry relative="1" as="geometry">
            <mxPoint x="100" y="649.5" as="sourcePoint" />
            <mxPoint x="260" y="649.5" as="targetPoint" />
          </mxGeometry>
        </mxCell>
        <mxCell id="JMpBx7VRB-Dhn8hsCUH9-4" value="0..*" style="resizable=0;html=1;whiteSpace=wrap;align=right;verticalAlign=bottom;strokeColor=default;fontFamily=Helvetica;fontSize=12;fontColor=default;startSize=0;fillColor=default;" parent="JMpBx7VRB-Dhn8hsCUH9-3" connectable="0" vertex="1">
          <mxGeometry x="1" relative="1" as="geometry">
            <mxPoint x="33" y="20" as="offset" />
          </mxGeometry>
        </mxCell>
        <mxCell id="JMpBx7VRB-Dhn8hsCUH9-5" value="" style="shape=link;html=1;rounded=0;fontFamily=Helvetica;fontSize=12;fontColor=default;startSize=0;exitX=0.5;exitY=0;exitDx=0;exitDy=0;entryX=0.25;entryY=1;entryDx=0;entryDy=0;" parent="1" source="vUnBG-eYcGrn4Uv5GQZv-30" target="vUnBG-eYcGrn4Uv5GQZv-18" edge="1">
          <mxGeometry relative="1" as="geometry">
            <mxPoint x="200" y="710" as="sourcePoint" />
            <mxPoint x="138" y="610" as="targetPoint" />
          </mxGeometry>
        </mxCell>
        <mxCell id="JMpBx7VRB-Dhn8hsCUH9-6" value="0..*" style="resizable=0;html=1;whiteSpace=wrap;align=right;verticalAlign=bottom;strokeColor=default;fontFamily=Helvetica;fontSize=12;fontColor=default;startSize=0;fillColor=default;" parent="JMpBx7VRB-Dhn8hsCUH9-5" connectable="0" vertex="1">
          <mxGeometry x="1" relative="1" as="geometry">
            <mxPoint x="33" y="20" as="offset" />
          </mxGeometry>
        </mxCell>
        <mxCell id="JMpBx7VRB-Dhn8hsCUH9-7" value="" style="shape=link;html=1;rounded=0;fontFamily=Helvetica;fontSize=12;fontColor=default;startSize=0;exitX=1;exitY=0.5;exitDx=0;exitDy=0;entryX=0;entryY=0.25;entryDx=0;entryDy=0;" parent="1" source="q_z5HYa4RiKaEqVuf-kb-8" target="vUnBG-eYcGrn4Uv5GQZv-13" edge="1">
          <mxGeometry relative="1" as="geometry">
            <mxPoint x="-140" y="530" as="sourcePoint" />
            <mxPoint x="20" y="530" as="targetPoint" />
          </mxGeometry>
        </mxCell>
        <mxCell id="JMpBx7VRB-Dhn8hsCUH9-8" value="0..*" style="resizable=0;html=1;whiteSpace=wrap;align=right;verticalAlign=bottom;strokeColor=default;fontFamily=Helvetica;fontSize=12;fontColor=default;startSize=0;fillColor=default;" parent="JMpBx7VRB-Dhn8hsCUH9-7" connectable="0" vertex="1">
          <mxGeometry x="1" relative="1" as="geometry">
            <mxPoint x="-10" y="-13" as="offset" />
          </mxGeometry>
        </mxCell>
        <mxCell id="JMpBx7VRB-Dhn8hsCUH9-14" value="" style="shape=link;html=1;rounded=0;fontFamily=Helvetica;fontSize=12;fontColor=default;startSize=0;exitX=0.5;exitY=1;exitDx=0;exitDy=0;entryX=0.385;entryY=-0.023;entryDx=0;entryDy=0;entryPerimeter=0;" parent="1" source="vUnBG-eYcGrn4Uv5GQZv-8" target="vUnBG-eYcGrn4Uv5GQZv-19" edge="1">
          <mxGeometry relative="1" as="geometry">
            <mxPoint x="290" y="500" as="sourcePoint" />
            <mxPoint x="450" y="500" as="targetPoint" />
          </mxGeometry>
        </mxCell>
        <mxCell id="JMpBx7VRB-Dhn8hsCUH9-15" value="0..*" style="resizable=0;html=1;whiteSpace=wrap;align=right;verticalAlign=bottom;strokeColor=default;fontFamily=Helvetica;fontSize=12;fontColor=default;startSize=0;fillColor=default;" parent="JMpBx7VRB-Dhn8hsCUH9-14" connectable="0" vertex="1">
          <mxGeometry x="1" relative="1" as="geometry">
            <mxPoint x="25" y="3" as="offset" />
          </mxGeometry>
        </mxCell>
        <mxCell id="JMpBx7VRB-Dhn8hsCUH9-16" value="" style="shape=link;html=1;rounded=0;fontFamily=Helvetica;fontSize=12;fontColor=default;startSize=0;exitX=0.5;exitY=1;exitDx=0;exitDy=0;entryX=0.369;entryY=-0.023;entryDx=0;entryDy=0;entryPerimeter=0;" parent="1" source="vUnBG-eYcGrn4Uv5GQZv-9" target="vUnBG-eYcGrn4Uv5GQZv-21" edge="1">
          <mxGeometry relative="1" as="geometry">
            <mxPoint x="290" y="500" as="sourcePoint" />
            <mxPoint x="450" y="500" as="targetPoint" />
          </mxGeometry>
        </mxCell>
        <mxCell id="JMpBx7VRB-Dhn8hsCUH9-17" value="1..*" style="resizable=0;html=1;whiteSpace=wrap;align=right;verticalAlign=bottom;strokeColor=default;fontFamily=Helvetica;fontSize=12;fontColor=default;startSize=0;fillColor=default;" parent="JMpBx7VRB-Dhn8hsCUH9-16" connectable="0" vertex="1">
          <mxGeometry x="1" relative="1" as="geometry">
            <mxPoint x="22" y="3" as="offset" />
          </mxGeometry>
        </mxCell>
        <mxCell id="JMpBx7VRB-Dhn8hsCUH9-19" value="" style="endArrow=none;html=1;rounded=0;fontFamily=Helvetica;fontSize=12;fontColor=default;startSize=0;exitX=0.5;exitY=0;exitDx=0;exitDy=0;entryX=0.387;entryY=1;entryDx=0;entryDy=0;entryPerimeter=0;" parent="1" source="vUnBG-eYcGrn4Uv5GQZv-7" target="vUnBG-eYcGrn4Uv5GQZv-2" edge="1">
          <mxGeometry width="50" height="50" relative="1" as="geometry">
            <mxPoint x="290" y="340" as="sourcePoint" />
            <mxPoint x="340" y="290" as="targetPoint" />
          </mxGeometry>
        </mxCell>
        <mxCell id="JMpBx7VRB-Dhn8hsCUH9-22" value="1" style="edgeLabel;html=1;align=center;verticalAlign=middle;resizable=0;points=[];fontSize=12;fontFamily=Helvetica;fontColor=default;" parent="JMpBx7VRB-Dhn8hsCUH9-19" vertex="1" connectable="0">
          <mxGeometry x="0.7798" y="-1" relative="1" as="geometry">
            <mxPoint x="6" as="offset" />
          </mxGeometry>
        </mxCell>
        <mxCell id="JMpBx7VRB-Dhn8hsCUH9-20" value="" style="shape=link;html=1;rounded=0;fontFamily=Helvetica;fontSize=12;fontColor=default;startSize=0;exitX=0.5;exitY=1;exitDx=0;exitDy=0;entryX=0.5;entryY=0;entryDx=0;entryDy=0;" parent="1" source="vUnBG-eYcGrn4Uv5GQZv-7" target="vUnBG-eYcGrn4Uv5GQZv-17" edge="1">
          <mxGeometry relative="1" as="geometry">
            <mxPoint x="302" y="403" as="sourcePoint" />
            <mxPoint x="287" y="460" as="targetPoint" />
          </mxGeometry>
        </mxCell>
        <mxCell id="JMpBx7VRB-Dhn8hsCUH9-21" value="0..*" style="resizable=0;html=1;whiteSpace=wrap;align=right;verticalAlign=bottom;strokeColor=default;fontFamily=Helvetica;fontSize=12;fontColor=default;startSize=0;fillColor=default;" parent="JMpBx7VRB-Dhn8hsCUH9-20" connectable="0" vertex="1">
          <mxGeometry x="1" relative="1" as="geometry">
            <mxPoint x="35" as="offset" />
          </mxGeometry>
        </mxCell>
        <mxCell id="FYIau1gP7xzf98cfBMTI-2" value="manages" style="shape=rhombus;perimeter=rhombusPerimeter;whiteSpace=wrap;html=1;align=center;strokeColor=default;fontFamily=Helvetica;fontSize=12;fontColor=default;startSize=0;fillColor=default;" parent="1" vertex="1">
          <mxGeometry x="240" y="-80" width="150" height="70" as="geometry" />
        </mxCell>
        <mxCell id="FYIau1gP7xzf98cfBMTI-3" value="" style="endArrow=none;html=1;rounded=0;fontFamily=Helvetica;fontSize=12;fontColor=default;startSize=0;exitX=0.5;exitY=0;exitDx=0;exitDy=0;entryX=0;entryY=0.5;entryDx=0;entryDy=0;" parent="1" source="y2WMvPLrFwyyZwJ9DGA0-4" target="FYIau1gP7xzf98cfBMTI-2" edge="1">
          <mxGeometry width="50" height="50" relative="1" as="geometry">
            <mxPoint x="-220" y="270" as="sourcePoint" />
            <mxPoint x="-170" y="220" as="targetPoint" />
          </mxGeometry>
        </mxCell>
        <mxCell id="FYIau1gP7xzf98cfBMTI-5" value="0..*" style="edgeLabel;html=1;align=center;verticalAlign=middle;resizable=0;points=[];fontSize=12;fontFamily=Helvetica;fontColor=default;" parent="FYIau1gP7xzf98cfBMTI-3" vertex="1" connectable="0">
          <mxGeometry x="-0.9508" y="1" relative="1" as="geometry">
            <mxPoint x="-27" y="2" as="offset" />
          </mxGeometry>
        </mxCell>
        <mxCell id="FYIau1gP7xzf98cfBMTI-4" value="" style="endArrow=none;html=1;rounded=0;fontFamily=Helvetica;fontSize=12;fontColor=default;startSize=0;exitX=0.5;exitY=0;exitDx=0;exitDy=0;entryX=1;entryY=0.5;entryDx=0;entryDy=0;" parent="1" source="vUnBG-eYcGrn4Uv5GQZv-23" target="FYIau1gP7xzf98cfBMTI-2" edge="1">
          <mxGeometry width="50" height="50" relative="1" as="geometry">
            <mxPoint x="-275" y="410" as="sourcePoint" />
            <mxPoint x="244" y="-35" as="targetPoint" />
          </mxGeometry>
        </mxCell>
        <mxCell id="FYIau1gP7xzf98cfBMTI-6" value="0..*" style="edgeLabel;html=1;align=center;verticalAlign=middle;resizable=0;points=[];fontSize=12;fontFamily=Helvetica;fontColor=default;" parent="FYIau1gP7xzf98cfBMTI-4" vertex="1" connectable="0">
          <mxGeometry x="-0.9393" y="-4" relative="1" as="geometry">
            <mxPoint x="22" as="offset" />
          </mxGeometry>
        </mxCell>
        <mxCell id="FYIau1gP7xzf98cfBMTI-7" value="Availability" style="swimlane;childLayout=stackLayout;horizontal=1;startSize=30;horizontalStack=0;rounded=1;fontSize=14;fontStyle=0;strokeWidth=2;resizeParent=0;resizeLast=1;shadow=0;dashed=0;align=center;arcSize=4;whiteSpace=wrap;html=1;strokeColor=default;fontFamily=Helvetica;fontColor=default;fillColor=default;" parent="1" vertex="1">
          <mxGeometry x="354.5" y="665" width="130" height="130" as="geometry" />
        </mxCell>
        <mxCell id="FYIau1gP7xzf98cfBMTI-8" value="&lt;u&gt;id&lt;/u&gt;&lt;br&gt;&lt;u&gt;trainer_id&lt;/u&gt;&lt;br&gt;available_start&lt;br&gt;available_end&lt;br&gt;open" style="align=left;strokeColor=none;fillColor=none;spacingLeft=4;fontSize=12;verticalAlign=top;resizable=0;rotatable=0;part=1;html=1;fontFamily=Helvetica;fontColor=default;startSize=0;" parent="FYIau1gP7xzf98cfBMTI-7" vertex="1">
          <mxGeometry y="30" width="130" height="100" as="geometry" />
        </mxCell>
        <mxCell id="FYIau1gP7xzf98cfBMTI-9" value="" style="endArrow=none;html=1;rounded=0;fontFamily=Helvetica;fontSize=12;fontColor=default;startSize=0;entryX=0;entryY=0.5;entryDx=0;entryDy=0;exitX=1;exitY=0.5;exitDx=0;exitDy=0;" parent="1" source="vUnBG-eYcGrn4Uv5GQZv-30" target="FYIau1gP7xzf98cfBMTI-7" edge="1">
          <mxGeometry width="50" height="50" relative="1" as="geometry">
            <mxPoint x="280" y="710" as="sourcePoint" />
            <mxPoint x="410" y="480" as="targetPoint" />
          </mxGeometry>
        </mxCell>
      </root>
    </mxGraphModel>
  </diagram>
  <diagram id="GxSMY4OlZ_rOdu9uo7Xs" name="Page-3">
    <mxGraphModel dx="1474" dy="1214" grid="1" gridSize="10" guides="1" tooltips="1" connect="1" arrows="1" fold="1" page="1" pageScale="1" pageWidth="850" pageHeight="1100" math="0" shadow="0">
      <root>
        <mxCell id="0" />
        <mxCell id="1" parent="0" />
      </root>
    </mxGraphModel>
  </diagram>
</mxfile>
